<svg xmlns="http://www.w3.org/2000/svg" xmlns:xlink="http://www.w3.org/1999/xlink" width="462.871" height="411.512" viewBox="0 0 462.871 411.512">
  <defs>
    <filter id="Path_44700" x="57.07" y="62.449" width="338.234" height="338.234" filterUnits="userSpaceOnUse">
      <feOffset dy="3" input="SourceAlpha"/>
      <feGaussianBlur stdDeviation="3" result="blur"/>
      <feFlood flood-opacity="0.161"/>
      <feComposite operator="in" in2="blur"/>
      <feComposite in="SourceGraphic"/>
    </filter>
    <linearGradient id="linear-gradient" y1="0.5" x2="1" y2="0.5" gradientUnits="objectBoundingBox">
      <stop offset="0" stop-color="#b6efea"/>
      <stop offset="1" stop-color="#eff8f7"/>
    </linearGradient>
    <linearGradient id="linear-gradient-2" x1="0.001" y1="0.5" x2="1.003" y2="0.5" gradientUnits="objectBoundingBox">
      <stop offset="0" stop-color="#b0c3e8"/>
      <stop offset="1" stop-color="#fbfbfe"/>
    </linearGradient>
    <linearGradient id="linear-gradient-3" x1="0.01" y1="0.5" x2="1" y2="0.5" xlink:href="#linear-gradient-2"/>
    <linearGradient id="linear-gradient-4" x1="0" y1="0.5" x2="1" y2="0.5" xlink:href="#linear-gradient-2"/>
    <linearGradient id="linear-gradient-5" x1="0" y1="0.5" x2="1.001" y2="0.5" xlink:href="#linear-gradient-2"/>
    <linearGradient id="linear-gradient-6" x1="0" y1="0.5" x2="1.001" y2="0.5" xlink:href="#linear-gradient-2"/>
    <linearGradient id="linear-gradient-7" x1="0" y1="0.5" x2="1" y2="0.5" xlink:href="#linear-gradient-2"/>
    <linearGradient id="linear-gradient-8" x1="0" y1="0.5" x2="1" y2="0.5" xlink:href="#linear-gradient-2"/>
    <linearGradient id="linear-gradient-9" y1="0.5" x2="1" y2="0.5" gradientUnits="objectBoundingBox">
      <stop offset="0" stop-color="#a4e5df"/>
      <stop offset="1" stop-color="#c9f9f5"/>
    </linearGradient>
    <linearGradient id="linear-gradient-10" x1="-0.003" y1="0.466" x2="0.564" y2="0.466" gradientUnits="objectBoundingBox">
      <stop offset="0" stop-color="#3e5a8e"/>
      <stop offset="1" stop-color="#496a9e"/>
    </linearGradient>
    <linearGradient id="linear-gradient-11" y1="0.5" x2="1" y2="0.5" gradientUnits="objectBoundingBox">
      <stop offset="0" stop-color="#9ae1db"/>
      <stop offset="1" stop-color="#c2f1ed"/>
    </linearGradient>
  </defs>
  <g id="Empty_State" data-name="Empty State" transform="translate(0 0.5)">
    <g id="Group_13743" data-name="Group 13743">
      <g id="Group_13737" data-name="Group 13737" transform="translate(66.07 67.95)">
        <g transform="matrix(1, 0, 0, 1, -66.07, -68.45)" filter="url(#Path_44700)">
          <path id="Path_44700-2" data-name="Path 44700" d="M7462.124,3246.208a160.057,160.057,0,0,1-160.135,160.136c-.473,0-.965,0-1.437-.02a160.112,160.112,0,0,1-117.672-267.089c2.533-2.835,5.163-5.558,7.9-8.206.076-.075.17-.17.245-.245,1.079-1.022,2.174-2.043,3.271-3.045a156.9,156.9,0,0,1,14.237-11.532c.151-.113.3-.228.454-.34a156.066,156.066,0,0,1,16.391-10.267c.456-.264.928-.509,1.38-.737a160.273,160.273,0,0,1,75.23-18.754,155.848,155.848,0,0,1,17.146.926,158.31,158.31,0,0,1,63.242,20.685,160.528,160.528,0,0,1,48.836,43.937c.32.417.623.833.922,1.268a158.281,158.281,0,0,1,17.924,32.272,1.4,1.4,0,0,1,.154.339,7.164,7.164,0,0,1,.34.87,10.141,10.141,0,0,1,.434,1.04,157.9,157.9,0,0,1,8.9,32.027,1.391,1.391,0,0,1,.057.4q1.166,6.891,1.7,13.992v.018c.322,4.065.473,8.188.473,12.329Z" transform="translate(-7075.82 -3017.66)" fill="#fff"/>
        </g>
      </g>
      <g id="Group_13738" data-name="Group 13738" transform="translate(76.859 78.743)">
        <path id="Path_44701" data-name="Path 44701" d="M7522.194,3317.122A149.323,149.323,0,1,1,7372.872,3167.8,149.322,149.322,0,0,1,7522.194,3317.122Z" transform="translate(-7223.548 -3167.8)" fill="url(#linear-gradient)"/>
      </g>
      <g id="Group_13784" data-name="Group 13784" transform="translate(82.612 37.217)">
        <g id="Group_13686" data-name="Group 13686" transform="translate(0 0.004)">
          <path id="Path_44631" data-name="Path 44631" d="M9555.322,8091.611l9.211,6.693a173.661,173.661,0,0,1-17.861,21.26,130.956,130.956,0,0,1-28.842,21.619c-17.965,10.15-33.121,21.979-44.967,34.977a131.125,131.125,0,0,0-9.523,11.629h-.02v.029l10.988,26.375.023-.021a91.157,91.157,0,0,1,7.73-12.648c10.779-14.885,26.8-28.58,47.207-40.1a154.909,154.909,0,0,0,39.342-31.24,225.065,225.065,0,0,0,14.766-18.264l-18.844-13.627Z" transform="translate(-9463.32 -8000.109)" fill="#29b7ab"/>
          <path id="Path_44632" data-name="Path 44632" d="M10448.559,8309.781l-.826-.6.826.6a15.7,15.7,0,0,0,16.916.939A15.7,15.7,0,0,1,10448.559,8309.781Z" transform="translate(-10315.345 -8188.419)" fill="#3e5a8e"/>
          <path id="Path_44633" data-name="Path 44633" d="M10582.83,8318.571c-.027.014-.045.043-.08.063C10582.785,8318.614,10582.8,8318.585,10582.83,8318.571Z" transform="translate(-10432.198 -8196.546)" fill="#3e5a8e"/>
          <path id="Path_44634" data-name="Path 44634" d="M10322.57,7459.492l-62.871-45.916a12.239,12.239,0,0,0-17.125,2.676L10230.328,7433a12.263,12.263,0,0,0,.486,15.137l7.756-10.7.016.021,70.785,51.242.051.029-7,9.7-6.014,8.293-1.527,2.107,1.527-2.1,6.014-8.3a12.206,12.206,0,0,0,10.617-5.016l12.217-16.764A12.24,12.24,0,0,0,10322.57,7459.492Z" transform="translate(-10125.121 -7411.216)" fill="#3e5a8e"/>
          <path id="Path_44635" data-name="Path 44635" d="M10165.973,7720.289l-1.9,2.629-7.176,9.91,7.176-9.92Z" transform="translate(-10063.628 -7678.726)" fill="#3e5a8e"/>
          <g id="Group_13680" data-name="Group 13680" transform="translate(102.339 36.919)">
            <path id="Path_44636" data-name="Path 44636" d="M10227.647,7685.732h0l-3.367,4.643,3.367-4.635Z" transform="translate(-10224.28 -7685.732)" fill="url(#linear-gradient-2)"/>
          </g>
          <g id="Group_13681" data-name="Group 13681" transform="translate(150.134 122.077)">
            <path id="Path_44637" data-name="Path 44637" d="M10580.069,8318.942c-.125.07-.266.127-.4.219C10579.8,8319.069,10579.944,8319.013,10580.069,8318.942Z" transform="translate(-10579.669 -8318.942)" fill="url(#linear-gradient-3)"/>
          </g>
          <g id="Group_13682" data-name="Group 13682" transform="translate(150.623 97.61)">
            <path id="Path_44638" data-name="Path 44638" d="M10583.3,8161.432a15.35,15.35,0,0,0,4.486-4.168l14.67-20.25-14.67,20.24A15.438,15.438,0,0,1,10583.3,8161.432Z" transform="translate(-10583.299 -8137.014)" fill="url(#linear-gradient-4)"/>
          </g>
          <g id="Group_13683" data-name="Group 13683" transform="translate(120.04 111.815)">
            <path id="Path_44639" data-name="Path 44639" d="M10355.9,8242.643h0l12.354,8.938-12.338-8.937Z" transform="translate(-10355.901 -8242.643)" fill="url(#linear-gradient-5)"/>
          </g>
          <g id="Group_13684" data-name="Group 13684" transform="translate(81.279 54.098)">
            <path id="Path_44640" data-name="Path 44640" d="M10070.654,7825.939l9.025-12.469-9.025,12.469a15.686,15.686,0,0,0,3.51,21.877l4.238,3.068-4.238-3.076A15.683,15.683,0,0,1,10070.654,7825.939Z" transform="translate(-10067.686 -7813.471)" fill="url(#linear-gradient-6)"/>
          </g>
          <g id="Group_13685" data-name="Group 13685" transform="translate(81.29 26.217)">
            <path id="Path_44641" data-name="Path 44641" d="M10163.78,7667.154l7.012-9.711-.053-.021-70.785-51.246-.018-.014-7.746,10.7h0l-3.365,4.648-1.889,2.609-7.182,9.92-9.008,12.457a15.676,15.676,0,0,0,3.49,21.879l4.238,3.066,9.234,6.7,18.818,13.625v-.008l12.336,8.953.832.6a15.7,15.7,0,0,0,16.916.939c.139-.078.285-.141.42-.232.029-.006.041-.029.068-.047a15.461,15.461,0,0,0,4.492-4.168l14.658-20.25,1.527-2.1,6-8.3Z" transform="translate(-10067.767 -7606.162)" fill="#fff"/>
          </g>
        </g>
        <path id="Path_44642" data-name="Path 44642" d="M10294.095,7657.29l-.014.01-7.012,9.711-6.018,8.283a12.618,12.618,0,0,1-5.252-2.25l-61.783-44.766a12.139,12.139,0,0,1-3.783-4.3l5.23-7.254,7.787-10.689,0-.041Z" transform="translate(-10109.778 -7579.794)" fill="rgba(62,90,142,0.2)"/>
        <path id="Path_44643" data-name="Path 44643" d="M10325.3,7476.621l-12.252,16.754a12.276,12.276,0,0,1-17.145,2.68l-62.91-45.918a12.062,12.062,0,0,1-2.154-2.027,12.3,12.3,0,0,1-.5-15.137l12.24-16.756a12.286,12.286,0,0,1,17.156-2.674l62.869,45.936A12.251,12.251,0,0,1,10325.3,7476.621Z" transform="translate(-10125.135 -7411.185)" fill="#29b7ab"/>
        <g id="Group_13687" data-name="Group 13687" transform="translate(128.737 25.869)">
          <path id="Path_44644" data-name="Path 44644" d="M10430.96,7604.8a6.554,6.554,0,1,1-9.135,1.459,6.714,6.714,0,0,1,1.639-1.59A6.5,6.5,0,0,1,10430.96,7604.8Z" transform="translate(-10420.565 -7603.539)" fill="url(#linear-gradient-7)"/>
        </g>
        <g id="Group_13688" data-name="Group 13688" transform="translate(167.177 53.702)">
          <path id="Path_44645" data-name="Path 44645" d="M10718.246,7820.9a6.551,6.551,0,1,1-1.461-9.162l.025.021A6.524,6.524,0,0,1,10718.246,7820.9Z" transform="translate(-10706.397 -7810.497)" fill="url(#linear-gradient-8)"/>
        </g>
      </g>
      <g id="Group_13739" data-name="Group 13739" transform="translate(27.137 126.91)">
        <path id="Path_44702" data-name="Path 44702" d="M6938.658,3614.118l-3.455-38.289a483.606,483.606,0,0,0-47.792-26.281l-3.906,16.914-1.77-19.6c-20.391-9.511-34.5-14.519-34.5-14.519s7.716,77.791,39.78,141.438l46.637,16.088-38.133-.576a195.2,195.2,0,0,0,13.852,20.33c51.026,65.165,113.674,101.325,139.927,80.769s6.171-90.049-44.855-155.212c-15.818-20.2-36.938-37.757-58.551-52.372l-7.235,31.312Z" transform="translate(-6847.239 -3532.339)" fill="url(#linear-gradient-9)"/>
      </g>
      <g id="Group_13740" data-name="Group 13740" transform="translate(0 199.52)">
        <path id="Path_44703" data-name="Path 44703" d="M6663.139,4092.51a10.64,10.64,0,1,1-10.64-10.64A10.64,10.64,0,0,1,6663.139,4092.51Z" transform="translate(-6641.858 -4081.87)" fill="#dffcfa"/>
      </g>
      <path id="Path_44704" data-name="Path 44704" d="M7257.075,2837.629a10.638,10.638,0,1,1-10.637-10.639A10.638,10.638,0,0,1,7257.075,2837.629Z" transform="translate(-7157.321 -2793.278)" fill="none" stroke="#e2fefb" stroke-miterlimit="10" stroke-width="5"/>
      <path id="Path_44705" data-name="Path 44705" d="M7959.059,2741.093a7.935,7.935,0,1,1-7.936-7.933A7.935,7.935,0,0,1,7959.059,2741.093Z" transform="translate(-7771.243 -2711.846)" fill="#dffcfa" stroke="#e2fefb" stroke-width="1"/>
      <path id="Path_44706" data-name="Path 44706" d="M8660.1,2582.489a10.637,10.637,0,1,1-10.637-10.639A10.637,10.637,0,0,1,8660.1,2582.489Z" transform="translate(-8374.97 -2571.85)" fill="#dffcfa" stroke="#e2fefb" stroke-width="1"/>
      <path id="Path_44707" data-name="Path 44707" d="M9986.345,3877.829a10.638,10.638,0,1,1-10.635-10.64A10.636,10.636,0,0,1,9986.345,3877.829Z" transform="translate(-9525.972 -3696.035)" fill="none" stroke="#e2fefb" stroke-miterlimit="10" stroke-width="5"/>
      <g id="Group_13741" data-name="Group 13741" transform="translate(34.509 92.12)">
        <path id="Path_44708" data-name="Path 44708" d="M6925.334,3288.93l-7.513-8.04,8.042-7.512a2.147,2.147,0,0,0-2.932-3.137l-8.042,7.512-7.511-8.041a2.147,2.147,0,1,0-3.137,2.931l7.511,8.04-8.042,7.512a2.147,2.147,0,0,0,2.932,3.138l8.04-7.512,7.511,8.04a2.146,2.146,0,1,0,3.137-2.931Z" transform="translate(-6903.033 -3269.034)" fill="#dffcfa"/>
      </g>
      <path id="Path_44709" data-name="Path 44709" d="M9730.88,3309.8l-5.24-5.609,5.609-5.239a1.5,1.5,0,0,0-2.043-2.19l-5.613,5.24-5.236-5.608a1.5,1.5,0,1,0-2.187,2.044l5.238,5.608-5.607,5.24a1.5,1.5,0,1,0,2.045,2.187l5.609-5.24,5.24,5.608a1.5,1.5,0,1,0,2.188-2.045Z" transform="translate(-9309.225 -3200.251)" fill="#dffcfa" stroke="#e2fefb" stroke-width="1"/>
      <path id="Path_44710" data-name="Path 44710" d="M9349.079,2777.575l19.354-17.321a2.73,2.73,0,0,0,.211-3.844l-.281-.314a2.727,2.727,0,0,0-3.842-.213l-19.354,17.321a2.73,2.73,0,0,0-.213,3.843l.281.315A2.73,2.73,0,0,0,9349.079,2777.575Z" transform="translate(-8987.192 -2730.968)" fill="#dffcfa" stroke="#e2fefb" stroke-width="1"/>
      <path id="Path_44713" data-name="Path 44713" d="M9361.267,4494.782l0-.008v-.016l0-.01v-.253l0-.008v-.017l0-.007v-.009l0-.008v-.008l0-.009,0-.007v-.017l-.006-.008v-.016l0-.008v-.008l0-.008v-.007l0-.008,0-.008v-.008l0-.008v-.008l0-.008,0-.007v-.007l0-.008v-.007l0-.008,0-.007,0-.008,0-.008,0-.007,0-.007,0-.008,0-.007,0-.006,0-.007,0-.007,0-.007,0-.008,0-.007,0-.007,0-.006,0-.007v-.007l0-.007,0-.007,0,0,0-.007,0-.007,0-.007,0-.008,0-.006,0-.006,0-.007,0-.007,0-.007,0-.006,0-.006,0-.007,0-.007-.006-.008,0-.006,0-.007,0,0-.006-.008,0-.007,0-.007,0-.007-.006,0,0-.007,0-.007,0-.008-.008-.006,0-.007,0,0,0-.007-.006-.007-.006,0,0-.006,0-.006,0-.007-.006-.006,0,0,0-.007-.006,0,0,0,0,0,0-.007-.008,0,0-.006-.006-.006,0,0-.006,0-.006,0-.008-.006,0-.006-.006,0,0-.006-.008,0,0,0,0,0-.006-.006-.006-.006-.006,0-.006-.007,0,0,0,0-.008,0-.006-.006,0,0-.006-.006-.006-.006,0,0-.006-.006,0-.006,0,0-.008-.006-.006-.007,0,0-.008,0,0,0,0-.006-.008-.006,0,0,0-.007-.008,0,0,0-.006,0-.006,0,0,0,0-.007-.008,0,0-.006-.006,0-.008,0,0,0,0,0-.006,0-.008,0,0,0-.008,0-.006,0,0,0-.008,0-.006,0-.008,0,0,0-.006,0-.008,0-.006,0-.008,0-.006,0-.008,0-.006,0,0,0-.01,0-.006,0-.008,0-.006,0,0,0-.01,0,0,0-.008,0-.008,0,0,0-.01,0,0,0-.01,0,0,0-.006,0-.008,0-.006,0-.008,0-.006,0-.01,0,0,0-.01,0-.006,0,0,0-.01,0-.006,0-.008,0-.008,0-.008,0-.006,0-.006,0-.01,0,0,0-.01,0-.006,0-.01,0-.008,0-.008,0-.006,0-.01,0-.008,0-.01,0-.006,0-.01,0-.006,0-.008,0h-.008l-.01,0-.006,0h-.01l-.006,0h-.008l-.008,0h-.033l0,0-.01,0h-.025l-.008,0h-.008l-.008,0h-.283l-.006,0h-.01l-.008,0h-.031l-.008,0-.008,0h-.031l-.008,0h-.008l-.008,0h-.023l-.006,0-.008,0h-.006l-.01,0h-.006l-.01,0,0,0-.01,0,0,0-.01,0-.008,0-.008,0-.006,0-.006,0-.01,0,0,0-.01,0-.006,0-.008,0-.006,0-.006,0-.008,0-.006,0-.008,0-.006,0-.006,0-.008,0-.006,0-.008,0-.006,0,0,0-.01,0-.006,0-.008,0-.006,0-.006,0-.006,0-.006,0-.01,0,0,0-.008,0-.006,0-.006,0-.008,0-.006,0-.008,0-.006,0-.008,0-.006,0-.006.006-.008,0,0,0-.01,0,0,0-.008,0-.006,0-.006,0-.008,0,0,0-.006,0-.008,0,0,0-.006,0-.006,0-.006,0-.006,0-.006,0-.006,0,0,0-.006,0-.006,0,0,.006-.006,0-.006.006,0,.006-.008,0,0,.006,0,0-.008.006,0,.006,0,0-.008,0,0,.006,0,0-.008.006,0,.006-.006,0-.006.006,0,0-.006,0-.008.006,0,0-.006,0-.006.006,0,.006-.006,0-.006.007,0,0-.006,0-.008.006,0,.007,0,0-.006,0-.006.007-.006,0-.006,0,0,.006-.006,0-.006.006,0,0,0,.006,0,.006-.006,0-.006.006,0,.006-.006.007,0,0,0,.006,0,0-.008.006,0,.006,0,.007,0,.006-.008,0,0,.006,0,.007-.006.007,0,0,0,.007,0,.007,0,.007-.006.006,0,.006,0,.007,0,.007-.006.007,0,.007,0,.007,0,0-.006.008,0,.006,0,.007,0,.007,0,.008,0,0,0,.007,0,.007,0,.007-.006.007,0,.006,0,.007,0,.007,0,.007,0,.007,0,.008,0,.007,0,0,0,.007,0,.007,0,.007,0,.008,0,.007,0,.008,0,.006,0,.008,0,.008,0,.008,0,.007,0,.008,0,.008,0,.007,0,.008,0,.008,0,.008,0,.008,0,.008,0,.008,0,.008v.009l-.006.008v.008l0,.008,0,.008v.009l0,.008,0,.007v.009l0,.008,0,.008v.016l0,.008,0,.008,0,.008v.009l0,.008,0,.008v.008l0,.008,2.383.306Zm-.32,2.338,0-.014v-.009l.006-.009v-.028l0-.009v-.022l0-.015V4497l0-.009,0-.009-.006.03.01-.048v-.009l0-.009v-.011l0,0v-.015l0-.009v-.01l0-.009v0l0-.015,0-.009,0-.01v-.009l0-.009v-.009l0,0,0-.015v-.009l0-.009v-.014l0-.014,0-.009v-.023l0-.015,0-.009v-.009l0-.011v0l0-.015v-.01l0-.009v-.028l.006-.01v-.009l0-.008,0-.039,0,.019v-.009l0-.008,0-.01v-.01l0-.009v0l0-.014,0-.011v-.009l0-.01,0,0v-.014l0-.009,0-.043,0,.023,0,0v-.015l0-.01v-.009l0-.008v-.006l0-.015,0-.009v-.009l.006-.042,0,.027,0-.014v-.009l0-.01v-.019l.008-.041-.008.028.006-.016,0-.009v-.009l0-.009v0l.006-.046,0,.022v-.018l0,0,0-.015,0-.009.006-.044-.006.024,0-.01,0-.009v0l0-.016v-.009l0-.043,0,.024v0l0-.015v-.009l.008-.042-.006.024v0l0-.015,0-.01,0-.041,0,.023,0,0,0-.015v-.009l0-.042,0,.023,0-.009,0-.009v0l.008-.048-.006.024,0-.01.006-.042,0,.029,0-.014v-.011l0-.008,0-.043,0,.029v-.015l.006-.041,0,.024,0-.009,0-.011v-.009l.008-.039,0,.021v-.01l0-.043,0,.023v-.018l0-.01,0-.041,0,.023v0l.008-.048-.006.024,0-.009.008-.043,0,.025v-.009l0-.038v.01l0-.042,0,.023,0,0,.006-.048,0,.024v-.011l.006-.042,0,.03,0-.015.006-.043-.006.024,0-.009,0-.043,0,.024v0l.008-.047,0,.024v-.01l.006-.043,0,.029,0-.015.006-.042-.006.025,0-.01.006-.041,0,.022v0l0-.048,0,.024,0-.009,0-.042v-.006l0,.021,0-.011.006-.041,0,.023v0l.008-.048,0,.023v-.008l.006-.044,0-.009,0,.023,0,0,.006-.049,0,.024,0-.009,0-.043,0,.029,0-.015.006-.042v-.009l0,.023v-.011l.006-.041v-.006l0,.02,0-.009,0-.043,0,.023,0,0,.006-.048,0-.009,0,.025,0-.01.006-.039v-.013l0,.023,0-.009,0-.042,0,.025v-.01l.006-.038,0-.014,0,.023v-.009l0-.042v.006l0-.044v-.009l0,.025,0-.009.006-.037v-.014l-.006.023,0-.01.006-.043,0,.009-2.383-.3,0,.024,0-.024,0,.011-.008.042v0l.006-.02,0,.009,0,.042,0,.01,0-.025v.01l0,.038,0,.014,0-.024,0,.01,0,.043v0l0-.02,0,.01,0,.042,0-.024,0,.01,0,.041v.006l0-.02v.01l-.008.042,0,.009,0-.028,0,.015-.006.042,0-.025,0,.01,0,.038v.013l0-.023v.009l0,.043,0,.009.006-.023v0l-.01.048,0-.023v.008l-.006.043,0-.028,0,.014-.006.043v.009l0-.023v.01l0,.042,0-.029v.015l-.008.042.006-.025v.009l-.008.039,0,.013,0-.023v.01l-.006.042,0-.028,0,.014,0,.043,0-.025,0,.009-.006.042.006-.023v0l-.008.046,0-.023,0,.011,0,.041,0-.029,0,.015,0,.042,0-.024v.009l0,.043,0-.023,0,0-.006.048.006-.024,0,.01-.008.043,0-.03,0,.015-.006.043,0-.025v.01l0,.037v-.011l0,.043,0-.023,0,.009-.008.042.008-.028,0,.014-.006.043,0-.025v.013l0,.015,0,.042,0-.024v.009l0,.038,0-.019,0,.009v.009l0,.01-.008.041.006-.023,0,0-.006.049.006-.024,0,.009v.009l0,0,0,.048,0-.024v.01l0,.042,0-.028,0,.014v.009l0,.01-.006.042,0-.025v.014l0,.014,0,.042,0-.024v.014l0,.014-.008.043.006-.025,0,.009v0l0,.014,0,.043,0-.024,0,.009v0l0,.015v.009l0,.01-.006.043,0-.024v.012l0,.016,0,.009v.009l0,.042,0-.028,0,.015v.018l0,.009,0,0-.008.046.006-.023,0,.011v.009l0,.009,0,.01v0l-.006.048,0-.023,0,.009v.009l0,0v.015l0,.009v.01l0,.009v.019l-.006.042,0-.024v.014l0,.014,0,.01,0,.009v.014l0,.014,0,.009v.02l0,.009v.01l-.006.038,0-.021,0,.011,0,.009v.013l0,.015v.009l0,.01,0,.009v.019l0,.009,0,.009v.015l0,.014,0,.01v.009l0,.009v.029l0,.009,0,.009v0l0,.015,0,.01v.02l0,.008,0,.01v.019l0,.008,0,.011v.013l0,.015,0,.009v.01l0,.01.006-.03-.008.047,0,.009v.01l0,.009v0l0,.015,0,.009v.01l0,.009v0l0,.015v.01l0,.01v.014Zm0,0,0,.008v.009l0,.008,0,.007v.032l0,.009v.221l0,.008v.032l0,.008v.008l0,.009v.008l0,.008v.008l0,.007v.009l.006.008v.023l0,.009v.015l0,.007,0,.009v.008l0,.007,0,.008,0,.009,0,.006v.008l0,.007,0,.007,0,.007v.008l.006.007,0,.008,0,.007,0,.007,0,.008,0,.008,0,0v.007l.006.009,0,.006,0,.007,0,.007v.007l.006,0,0,.007,0,.008,0,.007,0,.007,0,0,.006.007,0,.007,0,.007,0,.007,0,.008,0,0,0,.007.006.007,0,.007,0,.007,0,0v.007l.006.007,0,.007,0,.008,0,.007,0,0,.006.007,0,.007,0,.007,0,.007.006.007,0,.006,0,.006,0,.007.008.007,0,.006,0,.006,0,.007.006.006,0,.007,0,0,0,.007.006.006,0,.007,0,0,0,.006,0,.007.006,0,0,.006.006,0,.006.007,0,0,0,.006,0,0,.006.006,0,.006.006,0,.006.006,0,0,.006,0,.006.006.006,0,0,0,.006.007,0,0,.006,0,.006,0,.006.006,0,0,.008,0,0,.007,0,0,.006.006.006.006,0,0,.008,0,0,0,0,.007.008.006,0,0,0,0,.008.006.006.006,0,0,.006.006.006.006,0,0,.006,0,0,.006.006,0,.006.006,0,0,.006,0,.006.006.006,0,0,.006.008,0,0,0,.006,0,.006,0,0,0,.006,0,.008,0,.006,0,0,0,.008,0,.006,0,.006,0,.008,0,0,0,.01,0,.006,0,.006,0,.006,0,.006,0,.006,0,.006,0,.01,0,.006,0,.008.006,0,0,.006,0,.008,0,.006,0,.01,0,0,0,.006,0,.008,0,.006,0,.008,0,.006,0,.01,0,0,0,.006,0,.008,0,.006,0,.006,0,.006,0,.008,0,.008,0,.008,0,.006,0,.008,0,0,0,.01,0,.006,0,.01,0,0,0,.01,0,.008,0,.006,0,.008,0,.01,0,.006,0,.01,0,.006,0,.01,0,.008,0,.008,0,.006,0h.01l.008,0,.01,0h.006l.01,0h.021l.01,0,.006,0h.021l.01,0h.006l.01,0h.023l.008,0h.008l.008,0h.023l.01,0h.221l.006,0h.025l.008,0h.014l.01,0h.023l.01,0h0l.01,0h.023l.006,0,.008,0h.037l.01,0h.016l.006,0,.008,0,.006,0,.006,0,.01,0,0,0,.012,0,0,0,.01,0,.006,0,.008,0,.006,0,.006,0,.008,0,.008,0,.006,0,.006,0,.008,0,.006,0,.01,0,0,0,.006,0,.008,0,.006,0,.006,0,.008,0,.006,0,.008,0,.006,0,.008,0,0,0,.006,0,.008,0,.008,0,.008,0,.006,0,0,0,.008,0,.006,0,.008,0,.006,0,.006,0,.008,0,.006,0,.008,0,.006,0,.008,0,0,0,.008,0,.008,0,0,0,.01,0,0,0,0,0,.008,0,.006,0,.006,0,.006,0,.006,0,.008,0,0,0,.006,0,0,0,.008,0,.006,0,0,0,.008,0,0,0,0,0,.008-.006.006,0,.006,0,0,0,.006,0,.006-.006,0,0,0-.006.008-.006,0,0,0-.006.006-.006.008,0,0,0,0-.006.008,0,0-.006,0,0,.008,0,0-.006,0-.006.008,0,0-.007.008,0,0,0,0-.006.006,0,.006,0,0,0,.006-.007.006,0,.006,0,0-.006.006,0,.006,0,0-.006.006,0,.006-.006,0,0,.006,0,0-.006,0,0,0-.007.006,0,0-.006,0,0,.006-.007,0,0,0-.007,0,0,.006-.007,0-.007,0-.006,0,0,.006-.007,0-.007,0-.007,0,0,.006-.007,0-.007,0-.007,0-.006,0-.006.008-.007,0-.007,0-.008.006-.007,0-.006,0-.006,0-.007,0-.007,0-.007,0-.006v-.007l0-.006,0-.008,0-.007.006-.007v-.006l0-.007,0-.006,0-.007.006-.008v-.006l0-.006v-.009l0-.007,0-.006,0-.008,0-.007,0-.008,0-.007,0-.008,0-.007,0-.008.006-.008v-.007l0-.008,0-.007,0-.008,0-.008v-.01l.006-.008v-.007l0-.008,0-.008,0-.01,0-.008v-.007l0-.008,0-.008v-.008l0-.008v-.008l0-.008v-.008l0-.009v-.008l0-.008v-.008l0-.008v-.008l0-.009-2.377-.347Z" transform="translate(-8999.611 -4239.5)" fill="url(#linear-gradient-10)"/>
      <g id="Group_13742" data-name="Group 13742" transform="translate(209.175 203.734)">
        <path id="Path_44714" data-name="Path 44714" d="M8403.975,4141.471l-14.916,3.029,13.313,1.581a372.514,372.514,0,0,1-14.27,34.964c-.621,1.322-1.244,2.641-1.863,3.937l-6.295,1.27-13.752,2.8-9.066,1.838,15.15,1.787,5.182.6,4.324.518c-3.572,6.76-7.459,13.519-11.705,20.071a181.227,181.227,0,0,1-17.354,22.818c-1.994,2.254-4.066,4.43-6.191,6.5a266.991,266.991,0,0,1-36.906,30.3c0,.027-.023.027-.051.052-1.5,1.011-3.029,2.021-4.533,2.979-3.807,2.437-7.562,4.662-11.264,6.709A161.809,161.809,0,0,1,8245.4,4297.1a26.159,26.159,0,0,1-6.4-1.45,19.7,19.7,0,0,1-12.406-12.355c-2.047-5.646-2.15-12.716-.52-20.743.443-2.279,1.037-4.611,1.762-7.045.053-.129.078-.259.129-.415a117.072,117.072,0,0,1,7.307-17.844c1.139-2.331,2.383-4.661,3.73-7.044,3.006-5.335,6.447-10.8,10.334-16.344,2.9-4.17,6.063-8.391,9.453-12.587q4.893-6.136,10.436-12.224c.676-.776,1.4-1.528,2.123-2.3,3.189-3.445,6.527-6.889,10-10.282.441-.44.879-.854,1.346-1.269a140.706,140.706,0,0,1,13.078-11.084l1.035,11.084,1.322,13.856.416,4.378.982-4.378,3.133-13.856,2.771-12.226,1.063-4.687.469-2.021c3.264-2.122,6.578-4.143,9.916-6.061,7.822-4.532,15.824-8.6,23.75-12.2a378.146,378.146,0,0,1,42.4-16.265h.027c1.5-.466,2.977-.905,4.377-1.346,14.867-4.532,24.76-6.631,24.76-6.631s-2.641,11.266-8.209,27.712Z" transform="translate(-8224.945 -4113.76)" fill="url(#linear-gradient-11)"/>
      </g>
    </g>
    <g id="Group_13785" data-name="Group 13785" transform="translate(116.047 157.539)">
      <path id="Path_44647" data-name="Path 44647" d="M10388.87,8289.063c-20.467-13.139-48.072-10.3-61.758-8.643-.512.109-1.039.264-1.568.342-9.852,1.258-12.641,4.795-13.617,5.994-6.178,8.064-3.654,26.693-1.609,41.609a146.207,146.207,0,0,1,1.789,15.156c.281,4.5.365,9.031.221,13.576-1.73,21.641-13.82,33.209-30.3,44.857l4.154,5.385,6.492,8.412c.307.42.621.85.887,1.281a18.347,18.347,0,0,1,2.4,5.771,17.838,17.838,0,0,1,.209,7.086v.008a18.314,18.314,0,0,1-1.127,3.918,9.109,9.109,0,0,1-.43.979,17.014,17.014,0,0,1-1.592,2.656,14.412,14.412,0,0,1-2.07,2.418,16.318,16.318,0,0,1-1.643,1.422l-4.488,3.451-18.2,14-22.689,17.463v-.025c-.016-.014-.016-.041-.027-.1l6.637-5.123h.016c-.137-.551-.266-1.1-.447-1.631a14.222,14.222,0,0,0-2.336-4.416l-6.012-7.783-2.582-3.346-4.764-6.232-1.16-1.51-17.543-22.717-7.613-9.9-8.5-11.061-5.906-7.643a14.792,14.792,0,0,0-1.068-1.289c-.193-.209-.4-.422-.586-.607-.092-.09-.182-.178-.279-.271-.334-.281-.641-.561-.98-.811-.449-.328-.908-.658-1.379-.939-.238-.131-.459-.277-.711-.408l13.949-10.732,24.691-18.971a18.147,18.147,0,0,1,14.008-3.555,1.318,1.318,0,0,0,.3.059,20.976,20.976,0,0,1,2.818.74c.43.15.826.3,1.238.477a20.581,20.581,0,0,1,2.445,1.291,18.3,18.3,0,0,1,4.727,4.33l12.7,16.51h.014c1.555-1.125,3-2.148,4.354-3.176,7.215-5.355,11.459-9.58,13.629-14.594a18.658,18.658,0,0,0,1.219-3.488,28.289,28.289,0,0,0,.678-4.355,124.866,124.866,0,0,0-1.857-22.852c-2.887-21.008-6.127-44.764,6.986-61.77,6.611-8.592,16.352-13.967,29.059-16.014.043,0,.09,0,.1-.031a13.549,13.549,0,0,1,1.936-.428,3.464,3.464,0,0,1,.568-.061c11.85-1.447,34.355-4.219,57.1,1.949A138.373,138.373,0,0,1,10388.87,8289.063Z" transform="translate(-10136.093 -8251.879)" fill="#29b7ab"/>
      <path id="Path_44648" data-name="Path 44648" d="M10053.87,9367.3a14.281,14.281,0,0,1-5.139,14.816l-1.473,1.141a14.3,14.3,0,0,1-20-2.619l-6.574-8.553-8.518-11.078-25.09-32.641-8.521-11.078-6.508-8.465a14.271,14.271,0,0,1,2.633-20.02l1.465-1.148a14.336,14.336,0,0,1,15.725-1.09l6.654-5.094c.014,0,.059.029.09.039a14.7,14.7,0,0,1,5.014,4.318l5.9,7.643,8.518,11.078,25.137,32.609,8.512,11.078,6.016,7.793a14.644,14.644,0,0,1,2.775,6.047l-6.641,5.092C10053.856,9367.232,10053.841,9367.271,10053.87,9367.3Z" transform="translate(-9946.027 -9143.009)" fill="#3e5a8e"/>
      <g id="Group_13691" data-name="Group 13691" transform="translate(0.004 105.021)">
        <path id="Path_44649" data-name="Path 44649" d="M9950.861,9117.2l-45.371,34.869a14.292,14.292,0,0,1-5.141,14.816l-1.479,1.139a14.293,14.293,0,0,1-20-2.629l-6.57-8.537-29.9,23.016a6.56,6.56,0,0,1-9.209-1.219l-.512-.65a6.57,6.57,0,0,1,1.2-9.213l29.912-23.016-25.1-32.646-29.934,23.016a6.614,6.614,0,0,1-9.24-1.209l-.477-.629a6.561,6.561,0,0,1,1.2-9.244l29.939-23.016-6.5-8.453a14.262,14.262,0,0,1,2.617-20.029l1.471-1.137a14.31,14.31,0,0,1,15.723-1.1l6.656-5.1a.306.306,0,0,1,.09.053l38.664-29.719a18.21,18.21,0,0,1,25.533,3.334l39.785,51.752A18.222,18.222,0,0,1,9950.861,9117.2Z" transform="translate(-9797.653 -9032.787)" fill="#fff"/>
      </g>
      <path id="Path_44651" data-name="Path 44651" d="M9838.669,9558.918l-29.934,23.018a6.59,6.59,0,0,1-9.238-1.207l-.49-.627a6.565,6.565,0,0,1,1.207-9.242l29.941-23.02Z" transform="translate(-9797.628 -9373.547)" fill="#253138"/>
      <path id="Path_44652" data-name="Path 44652" d="M10088.866,9884.024l-29.9,23.02a6.6,6.6,0,0,1-9.234-1.2l-.5-.656a6.6,6.6,0,0,1,1.211-9.223l29.912-23.02Z" transform="translate(-10014.226 -9654.935)" fill="#253138"/>
      <path id="Path_44653" data-name="Path 44653" d="M10117.872,9362.1l-6.635,5.1-13.846,10.678-9.937-12.937-8.527-11.092-25.111-32.658-18.344-23.873-.072-.084,13.865-10.648,6.65-5.094a.254.254,0,0,1,.088.049,14.975,14.975,0,0,1,5.027,4.307l5.893,7.643,8.516,11.08,25.131,32.625,8.52,11.084,6.018,7.779A14.609,14.609,0,0,1,10117.872,9362.1Z" transform="translate(-10003.42 -9143.028)" fill="#e5f5ff"/>
      <path id="Path_44989" data-name="Path 44989" d="M10048.751,9402.992l-1.48,1.139a14.279,14.279,0,0,1-20-2.607l-6.57-8.555-8.525-11.078-25.084-32.637-8.525-11.08-6.5-8.463a14.251,14.251,0,0,1,2.627-20.021l1.457-1.15a14.3,14.3,0,0,1,15.744-1.088c.021.031.053.031.064.061a14.135,14.135,0,0,1,4.225,3.641l6.5,8.469,48.684,63.34a14.551,14.551,0,0,1,2.486,5.1.6.6,0,0,1,.029.141A14.286,14.286,0,0,1,10048.751,9402.992Z" transform="translate(-9946.033 -9163.881)" fill="#29b7ab"/>
    </g>
  </g>
</svg>
