<svg width="327" height="206" viewBox="0 0 327 206" fill="none" xmlns="http://www.w3.org/2000/svg">
<g clip-path="url(#clip0_4179_5428)">
<path d="M327 0H0V206.445H327V0Z" fill="#4780BE"/>
<path d="M327 149.765L230.091 70.1512C223.387 64.6437 214.98 61.633 206.303 61.633C197.627 61.633 189.22 64.6437 182.516 70.1512L156.316 91.6748L78.1421 27.4523C71.4381 21.9448 63.0307 18.9341 54.3544 18.9341C45.6782 18.9341 37.2708 21.9447 30.5668 27.4523L0 52.5638V196.147L114.761 196.887V206.445H327V149.765Z" fill="#2C59B1" fill-opacity="0.59"/>
<path d="M327 206.445V60.0351L307.648 44.137C301.067 38.7305 292.814 35.7751 284.297 35.7751C275.78 35.7751 267.527 38.7305 260.946 44.137L154.048 131.957L138.854 119.474C132.273 114.068 124.019 111.112 115.502 111.112C106.985 111.112 98.7323 114.068 92.1513 119.474L0 195.179V206.445H327Z" fill="#2C59B1"/>
<g style="mix-blend-mode:overlay" opacity="0.5">
<path d="M327 60.0351L307.215 43.7809C304.45 41.5097 301.213 39.8849 297.74 39.0251C294.267 38.1653 290.646 38.0924 287.141 38.8116C283.636 39.5308 280.336 41.0239 277.482 43.182C274.628 45.34 272.293 48.1084 270.646 51.2848L254.517 82.3948L285.538 75.4586C287.251 75.0754 289.038 75.173 290.699 75.7407C292.361 76.3083 293.833 77.3239 294.954 78.6755C296.075 80.027 296.801 81.6619 297.052 83.3998C297.302 85.1377 297.068 86.9111 296.375 88.5243L245.689 206.445H327V60.0351Z" fill="#4F5867"/>
</g>
<g style="mix-blend-mode:overlay" opacity="0.5">
<path d="M40.5848 35.7104L25.2178 65.3516L50.0628 59.7962C59.8845 57.6 67.8839 67.7424 63.4597 76.7821L0 206.445L292.539 203.847L79.1939 27.788C76.275 25.3901 72.8573 23.6746 69.1905 22.7668C65.5237 21.8591 61.7004 21.7821 57.9999 22.5414C54.2995 23.3007 50.8155 24.8772 47.8025 27.1556C44.7894 29.434 42.3235 32.3568 40.5848 35.7104Z" fill="#4F5867"/>
</g>
<path d="M87.2516 50.2907C87.6421 49.9002 88.2752 49.9002 88.6658 50.2907L92.9319 54.5568C93.3224 54.9474 93.3224 55.5805 92.9319 55.971L88.6658 60.2372C88.2753 60.6277 87.6421 60.6277 87.2516 60.2372L82.9854 55.971C82.5949 55.5805 82.5949 54.9474 82.9854 54.5568L87.2516 50.2907Z" fill="#FFCC00"/>
<path d="M78.2929 45.7071C78.6834 45.3166 79.3166 45.3166 79.7071 45.7071L81.2929 47.2929C81.6834 47.6834 81.6834 48.3166 81.2929 48.7071L79.7071 50.2929C79.3166 50.6834 78.6834 50.6834 78.2929 50.2929L76.7071 48.7071C76.3166 48.3166 76.3166 47.6834 76.7071 47.2929L78.2929 45.7071Z" fill="white"/>
<path d="M182.293 33.7071C182.683 33.3166 183.317 33.3166 183.707 33.7071L185.293 35.2929C185.683 35.6834 185.683 36.3166 185.293 36.7071L183.707 38.2929C183.317 38.6834 182.683 38.6834 182.293 38.2929L180.707 36.7071C180.317 36.3166 180.317 35.6834 180.707 35.2929L182.293 33.7071Z" fill="white"/>
<path d="M252.293 35.7071C252.683 35.3166 253.317 35.3166 253.707 35.7071L255.293 37.2929C255.683 37.6834 255.683 38.3166 255.293 38.7071L253.707 40.2929C253.317 40.6834 252.683 40.6834 252.293 40.2929L250.707 38.7071C250.317 38.3166 250.317 37.6834 250.707 37.2929L252.293 35.7071Z" fill="white"/>
<path d="M26.2929 42.7071C26.6834 42.3166 27.3166 42.3166 27.7071 42.7071L29.2929 44.2929C29.6834 44.6834 29.6834 45.3166 29.2929 45.7071L27.7071 47.2929C27.3166 47.6834 26.6834 47.6834 26.2929 47.2929L24.7071 45.7071C24.3166 45.3166 24.3166 44.6834 24.7071 44.2929L26.2929 42.7071Z" fill="white"/>
<path d="M16.9732 29.7071C17.3638 29.3166 17.9969 29.3166 18.3875 29.7071L22.6536 33.9732C23.0441 34.3638 23.0441 34.9969 22.6536 35.3875L18.3875 39.6536C17.9969 40.0441 17.3638 40.0441 16.9732 39.6536L12.7071 35.3875C12.3166 34.9969 12.3166 34.3638 12.7071 33.9732L16.9732 29.7071Z" fill="#FFCC00"/>
<path d="M199.293 17.7071C199.683 17.3166 200.317 17.3166 200.707 17.7071L204.293 21.2929C204.683 21.6834 204.683 22.3166 204.293 22.7071L200.707 26.2929C200.317 26.6834 199.683 26.6834 199.293 26.2929L195.707 22.7071C195.317 22.3166 195.317 21.6834 195.707 21.2929L199.293 17.7071Z" fill="#FFCC00"/>
<path d="M119.367 51.9435C119.757 51.553 120.39 51.553 120.781 51.9435L129.065 60.2272C129.455 60.6177 129.455 61.2509 129.065 61.6414L120.781 69.9251C120.39 70.3156 119.757 70.3156 119.367 69.9251L111.083 61.6414C110.693 61.2509 110.693 60.6177 111.083 60.2272L119.367 51.9435Z" fill="#FFEB99"/>
<path d="M120 -2L120 53" stroke="#FFEB99"/>
<path d="M141 -1L141 24" stroke="#FFEB99"/>
<path d="M303 -1L303 32" stroke="#FFEB99"/>
<path d="M36 -1L36 24" stroke="#FFCC00"/>
<path d="M200 0V19.5" stroke="#FFCC00"/>
<path d="M35.2929 19.7071C35.6834 19.3166 36.3166 19.3166 36.7071 19.7071L44.2929 27.2929C44.6834 27.6834 44.6834 28.3166 44.2929 28.7071L36.7071 36.2929C36.3166 36.6834 35.6834 36.6834 35.2929 36.2929L27.7071 28.7071C27.3166 28.3166 27.3166 27.6834 27.7071 27.2929L35.2929 19.7071Z" fill="#FFCC00"/>
<path d="M246.991 43.7071C247.381 43.3166 248.015 43.3166 248.405 43.7071L256.689 51.9908C257.079 52.3813 257.079 53.0145 256.689 53.405L248.405 61.6887C248.015 62.0793 247.381 62.0793 246.991 61.6887L238.707 53.405C238.317 53.0145 238.317 52.3813 238.707 51.9908L246.991 43.7071Z" fill="#FFCC00"/>
<path d="M250.973 -2.29289C251.364 -2.68342 251.997 -2.68342 252.387 -2.29289L256.654 1.97324C257.044 2.36376 257.044 2.99693 256.654 3.38745L252.387 7.65359C251.997 8.04411 251.364 8.04411 250.973 7.65359L246.707 3.38745C246.317 2.99693 246.317 2.36376 246.707 1.97324L250.973 -2.29289Z" fill="#FFEB99"/>
<path d="M301.973 28.7071C302.364 28.3166 302.997 28.3166 303.387 28.7071L307.654 32.9732C308.044 33.3638 308.044 33.9969 307.654 34.3875L303.387 38.6536C302.997 39.0441 302.364 39.0441 301.973 38.6536L297.707 34.3875C297.317 33.9969 297.317 33.3638 297.707 32.9732L301.973 28.7071Z" fill="#FFEB99"/>
<path d="M140.293 22.7071C140.683 22.3166 141.317 22.3166 141.707 22.7071L146.293 27.2929C146.683 27.6834 146.683 28.3166 146.293 28.7071L141.707 33.2929C141.317 33.6834 140.683 33.6834 140.293 33.2929L135.707 28.7071C135.317 28.3166 135.317 27.6834 135.707 27.2929L140.293 22.7071Z" fill="#FFEB99"/>
</g>
<defs>
<clipPath id="clip0_4179_5428">
<rect width="327" height="206" fill="white"/>
</clipPath>
</defs>
</svg>
